<svg xmlns="http://www.w3.org/2000/svg" xmlns:xlink="http://www.w3.org/1999/xlink" id="Camada_1" x="0px" y="0px" viewBox="0 0 588.82 270.94" style="enable-background:new 0 0 588.82 270.94;" xml:space="preserve">
<style type="text/css">
	.st0{fill:#510F31;}
</style>
<g>
	<rect x="18.37" y="73.7" class="st0" width="43.18" height="191.02"></rect>
	<path class="st0" d="M118.62,212.9V105.53c0,0-0.73-4.69,2.71-5.02c0,0,2.94-0.73,8.24,3.89c0.34,0.11,39.7,30.75,52.38,40.98   c6.86,5.53,7.39-1.24,7.39-1.24s1.22-10.82-0.45-18.2c-0.79-3.5-2.6-4.52-4.82-6.42C158.46,97.75,93.9,45.64,93.9,45.64   s-3.44-3.73-6.32-2.31c0,0-3.5,0.45-2.82,8.13L84.64,212.9H118.62z"></path>
	<path class="st0" d="M260.53,35.09v166.63c0,0,0.34,3.95-4.06,3.39c0,0-14.23-9.76-24.45-20.26c0,0-3.66-2.6-3.66-8.53V35.09   H260.53z"></path>
	<path class="st0" d="M376.36,212.9h-34.21V72.68c0,0-0.17-3.73-6.44-3.39l-28.96-0.02V35.09h58.25c0,0,11.52,0.85,11.35,15.58   V212.9z"></path>
	<path class="st0" d="M572.44,123.74c-1.46-95.28-90.89-88.36-90.89-88.36c-83.03,0.56-86.08,82.28-86.08,82.28   c-6.24,99.31,90.57,95.84,90.57,95.84S573.82,213.51,572.44,123.74z M485.08,178.18c0,0-57.24,0.51-55.04-54.19   c0,0,2.2-53,52.33-53.34c0,0,53.74-4.17,54.87,53.34C538.25,175.81,485.08,178.18,485.08,178.18z"></path>
	<rect x="18.37" y="6.22" class="st0" width="43.18" height="28.86"></rect>
</g>
</svg>
